<?xml version="1.0" encoding="utf-8"?><svg viewBox="0 0 62 32" xmlns="http://www.w3.org/2000/svg" xmlns:xlink="http://www.w3.org/1999/xlink"><style>:root>svg{display:none}:root>svg:target{display:block}</style><svg viewBox="0 0 62 9" id="arrow-left" xmlns="http://www.w3.org/2000/svg"><path d="M0 4.5L4.707 9V4.975H62v-.95H4.706V0L.001 4.5z"/></svg><svg viewBox="0 0 62 9" id="arrow-right" xmlns="http://www.w3.org/2000/svg"><path d="M62 4.5L57.293 0v4.025H0v.95h57.294V9l4.705-4.5z"/></svg><svg viewBox="0 0 9 22" id="arrow-top" xmlns="http://www.w3.org/2000/svg"><path d="M4.5 0L0 4.705h4V22h1V4.705h4L4.5 0z"/></svg><svg viewBox="0 0 31 31" id="eye" xmlns="http://www.w3.org/2000/svg"><path d="M30.803 14.897c-.277-.379-6.876-9.276-15.303-9.276C7.072 5.62.473 14.518.197 14.897c-.263.36-.263.846 0 1.206.276.379 6.875 9.276 15.303 9.276 8.427 0 15.026-8.897 15.303-9.276.263-.36.263-.847 0-1.206zM15.5 23.335c-6.208 0-11.585-5.905-13.176-7.836 1.59-1.932 6.955-7.834 13.176-7.834 6.207 0 11.584 5.904 13.176 7.836-1.59 1.932-6.955 7.834-13.176 7.834z"/><path d="M15.5 9.368A6.139 6.139 0 009.368 15.5a6.139 6.139 0 006.132 6.132 6.139 6.139 0 006.132-6.132A6.139 6.139 0 0015.5 9.368zm0 10.22a4.092 4.092 0 01-4.088-4.088 4.092 4.092 0 014.088-4.088 4.092 4.092 0 014.088 4.088 4.092 4.092 0 01-4.088 4.088z"/></svg><svg viewBox="0 0 28 28" id="mail" xmlns="http://www.w3.org/2000/svg"><path d="M27.753 5.563L19.261 14l8.492 8.437c.154-.32.247-.675.247-1.054V6.617c0-.379-.093-.733-.247-1.054zM25.54 4.156H2.462c-.38 0-.734.093-1.055.247l10.854 10.799c.96.96 2.52.96 3.48 0l10.853-10.8a2.432 2.432 0 00-1.054-.246zM.247 5.563C.093 5.883 0 6.238 0 6.617v14.766c0 .379.093.733.247 1.054L8.738 14 .247 5.563z"/><path d="M18.102 15.16l-1.201 1.201a4.106 4.106 0 01-5.8 0L9.899 15.16l-8.492 8.437c.321.153.676.246 1.055.246H25.54c.379 0 .733-.093 1.054-.246l-8.492-8.437z"/></svg><svg viewBox="0 0 31 31" id="minus" xmlns="http://www.w3.org/2000/svg"><path d="M4.54 4.54c-6.055 6.056-6.056 15.864 0 21.92 6.055 6.055 15.865 6.056 21.92 0 6.056-6.055 6.056-15.865 0-21.92-6.055-6.056-15.864-6.056-21.92 0zm20.37 9.41v3.1H6.09v-3.1H24.91z"/></svg><svg viewBox="0 0 31 31" id="plus" xmlns="http://www.w3.org/2000/svg"><path d="M4.54 4.54c-6.055 6.056-6.056 15.864 0 21.92 6.055 6.055 15.865 6.056 21.92 0 6.056-6.055 6.056-15.865 0-21.92-6.055-6.056-15.865-6.055-21.92 0zm20.37 9.41v3.1h-7.86v7.86H13.95v-7.86H6.09v-3.1h7.858V6.09h3.101v7.86h7.861z"/></svg><svg viewBox="0 0 18 32" id="tel" xmlns="http://www.w3.org/2000/svg"><path d="M15.291 0H2.708A2.308 2.308 0 00.4 2.308v27.384A2.308 2.308 0 002.708 32h12.583a2.308 2.308 0 002.31-2.308V2.308A2.308 2.308 0 0015.29 0zM7.456 1.365h3.088a.202.202 0 010 .402H7.456a.201.201 0 010-.402zM4.378.88a.322.322 0 110 .645.322.322 0 010-.645zM2.918.687a.515.515 0 110 1.03.515.515 0 010-1.03zM9.806 30.83H8.194a.925.925 0 110-1.85h1.612a.925.925 0 110 1.85zm6.816-2.58H1.377V3.751h15.245v24.498z"/></svg></svg>