<svg width="56" height="56" viewBox="0 0 56 56" fill="none" xmlns="http://www.w3.org/2000/svg">
<path fill-rule="evenodd" clip-rule="evenodd" d="M10.9015 22.4H4.66667C2.09043 22.3968 0.00319011 20.3091 0 17.7333V4.66667C0.00319011 2.09043 2.09043 0.00319011 4.66667 0H23.3333C25.9096 0.00319011 27.9968 2.09043 28 4.66667V17.7333C27.9968 20.3091 25.9096 22.3968 23.3333 22.4H17.9389L18.648 25.9465C18.725 26.3234 18.5632 26.7085 18.2401 26.9172C18.0888 27.0143 17.9129 27.0662 17.7333 27.0667C17.5387 27.0667 17.3492 27.0056 17.191 26.8921L10.9015 22.4ZM4.66667 1.86667C3.12038 1.86667 1.86667 3.12038 1.86667 4.66667V17.7333C1.86667 19.2796 3.12038 20.5333 4.66667 20.5333H11.2C11.3941 20.5347 11.5828 20.5971 11.7396 20.7115L16.352 24.006L15.8854 21.6531C15.8293 21.3787 15.8995 21.0934 16.0768 20.8761C16.254 20.6591 16.5197 20.5333 16.8 20.5333H23.3333C24.8796 20.5333 26.1333 19.2796 26.1333 17.7333V4.66667C26.1333 3.12038 24.8796 1.86667 23.3333 1.86667H4.66667ZM54.128 2.69736L55.9947 19.4974C56.0257 19.779 55.9272 20.0593 55.7267 20.2598L54.2182 21.7678L55.9359 29.816C56.1697 30.9494 55.7641 32.1193 54.8795 32.8648C53.9945 33.6104 52.7727 33.8114 51.6953 33.3885C50.6184 32.9655 49.8596 31.9866 49.7188 30.8382L49.1259 26.8601L48.26 27.7265L46.9402 26.4067L48.7846 24.5623L48.3926 21.9278C48.3575 21.9993 48.3129 22.0663 48.26 22.1265L45.46 24.9265L44.1402 23.6067L46.2803 21.4666L34.5334 9.71969L30.5267 13.7265L29.2069 12.4067L33.8735 7.74C34.2381 7.37542 34.8288 7.37542 35.1933 7.74L48.2254 20.7684L46.7816 11.0618C45.4741 10.6535 44.6506 9.36285 44.8316 8.00524C45.0125 6.64716 46.145 5.61721 47.5135 5.56526C48.8825 5.51376 50.0898 6.4553 50.3723 7.7956C50.6553 9.1359 49.9316 10.4849 48.6583 10.9907L50.432 22.9199L54.0943 19.2572L52.3602 3.64436L36.7428 1.91031L30.5267 8.12646L29.2069 6.80667L35.7402 0.273331C35.9412 0.0741771 36.2215 -0.0242604 36.5027 0.00536199L53.3027 1.87203C53.737 1.91988 54.0797 2.26305 54.128 2.69736ZM48.5335 8.3999C48.5335 7.88447 48.1156 7.46656 47.6001 7.46656C47.0847 7.46656 46.6668 7.88447 46.6668 8.3999C46.6668 8.91533 47.0847 9.33323 47.6001 9.33323C48.1156 9.33323 48.5335 8.91533 48.5335 8.3999ZM53.6632 31.4325C54.0273 31.1326 54.1977 30.6577 54.1084 30.1952L52.6505 23.3405L50.7734 25.2177L51.5677 30.5853C51.621 31.0538 51.9264 31.4553 52.3634 31.6321C52.8005 31.8089 53.2995 31.7323 53.6632 31.4325ZM20.2599 55.7264C19.8953 56.0905 19.3047 56.0905 18.9401 55.7264L0.27343 37.0597C-0.0906976 36.6952 -0.0906976 36.1045 0.27343 35.7399L11.4734 24.5399L12.7932 25.8597L2.25312 36.3998L19.6 53.7467L23.6068 49.7399L24.9266 51.0597L20.2599 55.7264ZM6.80779 36.3002L12.8741 30.2339L14.1939 31.5537L8.1276 37.62L6.80779 36.3002ZM15.7657 33.1269L9.69939 39.1932L11.0192 40.513L17.0859 34.4467L15.7657 33.1269ZM12.5932 42.0861L16.1397 38.5396L17.46 39.8594L13.913 43.4059L12.5932 42.0861ZM18.0072 42.4598L15.4865 44.98L16.8068 46.3003L19.327 43.7796L18.0072 42.4598ZM18.3801 47.8734L20.2468 46.0071L21.5666 47.327L19.7004 49.1932L18.3801 47.8734ZM42.4294 48.4157C39.875 50.3092 36.7797 51.3319 33.6001 51.3333C26.8047 51.3401 20.8633 46.7541 19.1489 40.1788C17.434 33.6031 20.3798 26.6997 26.3139 23.3879C32.2475 20.0761 39.6695 21.1927 44.3662 26.1041C49.0625 31.015 49.8473 38.4794 46.2739 44.2594L46.3933 44.14L53.2803 51.027C54.4178 52.1645 54.4178 54.0093 53.2803 55.1468C52.1428 56.2843 50.2984 56.2843 49.1605 55.1468L42.4294 48.4157ZM51.9605 53.827C52.3693 53.4182 52.3693 52.7556 51.9605 52.3468L45.2845 45.6717C44.8484 46.2182 44.3749 46.7336 43.8667 47.2144L50.4803 53.827C50.8891 54.2358 51.5517 54.2358 51.9605 53.827ZM46.6667 36.3999C46.6667 29.1834 40.8165 23.3332 33.6001 23.3332C26.3868 23.341 20.5411 29.1866 20.5334 36.3999C20.5334 43.6164 26.3836 49.4666 33.6001 49.4666C40.8165 49.4666 46.6667 43.6164 46.6667 36.3999ZM33.5999 47.5999C39.7856 47.5999 44.8 42.5855 44.8 36.3999C44.8 30.2142 39.7856 25.1999 33.5999 25.1999C27.4143 25.1999 22.3999 30.2142 22.3999 36.3999C22.4068 42.5827 27.4171 47.593 33.5999 47.5999ZM33.5999 27.0665C38.7547 27.0665 42.9333 31.2451 42.9333 36.3999C42.9333 41.5546 38.7547 45.7332 33.5999 45.7332C28.4452 45.7332 24.2666 41.5546 24.2666 36.3999C24.2721 31.2474 28.4475 27.072 33.5999 27.0665ZM4.66673 18.6665H24.2667V16.7999H5.60007V14.3107L7.46673 11.8224L9.52025 14.5599C9.70755 14.7946 9.99147 14.9318 10.2918 14.9332C10.5949 14.925 10.8751 14.77 11.0433 14.5176L14.083 9.95754L17.949 14.5982C18.1272 14.8101 18.3897 14.9327 18.6667 14.9332C18.6959 14.935 18.7251 14.935 18.7547 14.9332C19.0609 14.904 19.333 14.7263 19.4825 14.457L24.1492 6.05695L22.5177 5.15187L18.5118 12.3611L14.7178 7.80604C14.5315 7.57544 14.2457 7.44875 13.9495 7.46652C13.656 7.48247 13.3867 7.63605 13.2235 7.88078L10.2221 12.3852L8.21322 9.70643C8.02956 9.48312 7.75567 9.3537 7.46673 9.3537C7.1778 9.3537 6.90391 9.48312 6.72025 9.70643L5.60007 11.1999V4.66652H3.7334V17.7332C3.7334 18.2486 4.1513 18.6665 4.66673 18.6665ZM32.7345 40.5749H35.0457V39.1178H32.7345V38.3498H35.0027C36.1703 38.3354 37.0818 38.0411 37.7374 37.4669C38.393 36.8879 38.7208 36.0911 38.7208 35.0767C38.7208 34.0813 38.3762 33.2846 37.6872 32.6864C36.9981 32.0835 36.0769 31.782 34.9237 31.782H30.9257V36.8927H29.4542V38.3498H30.9257V39.1178H29.4542V40.5749H30.9257V42.233H32.7345V40.5749ZM34.895 36.8927H32.7345V33.2463H35.0027C35.596 33.2607 36.0602 33.4377 36.3952 33.7775C36.7349 34.1172 36.9048 34.5551 36.9048 35.091C36.9048 35.6892 36.7325 36.139 36.388 36.4404C36.0434 36.7419 35.5458 36.8927 34.895 36.8927Z" fill="url(#paint0_linear)"/>
<defs>
<linearGradient id="paint0_linear" x1="56.001" y1="24.5614" x2="-1.58519e-08" y2="24.5614" gradientUnits="userSpaceOnUse">
<stop stop-color="#9281CE"/>
<stop offset="1" stop-color="#68DBFF"/>
</linearGradient>
</defs>
</svg>
