<svg width="64" height="58" viewBox="0 0 64 58" fill="none" xmlns="http://www.w3.org/2000/svg">
<path fill-rule="evenodd" clip-rule="evenodd" d="M49.999 0.5H57C60.859 0.5 64 3.641 64 7.5V35.5C64 39.359 60.859 42.5 57 42.5C56.447 42.5 56 42.053 56 41.5V30.5H50.079C50.0679 30.5009 50.0568 30.5034 50.0457 30.5058C50.0318 30.5089 50.0179 30.512 50.004 30.512C49.9989 30.512 49.9941 30.5111 49.9894 30.5098C49.9774 30.5066 49.9662 30.5007 49.954 30.5H44V35.504V35.505C44 36.585 43.843 37.628 43.573 38.625C43.5717 38.6441 43.566 38.6624 43.5602 38.6809C43.5569 38.6915 43.5535 38.7021 43.551 38.713C42.701 41.763 40.681 44.322 38 45.879V48.504L40.999 48.502H41C44.859 48.502 48 51.643 48 55.502V56.5C48 57.053 47.553 57.5 47 57.5C46.447 57.5 46 57.053 46 56.5V55.502C46 52.745 43.757 50.502 41 50.502L37.001 50.504H37H27H26.999L23 50.502C20.243 50.502 18 52.745 18 55.502V56.5C18 57.053 17.553 57.5 17 57.5C16.447 57.5 16 57.053 16 56.5V55.502C16 51.643 19.141 48.502 23 48.502H23.001L26 48.504V45.879C23.319 44.322 21.298 41.763 20.449 38.713C20.4464 38.7 20.4427 38.6873 20.4389 38.6747C20.4341 38.6583 20.4293 38.642 20.427 38.625C20.157 37.628 20 36.586 20 35.505V35.504V30.5H14.001H8V41.5C8 42.053 7.553 42.5 7 42.5C3.141 42.5 0 39.359 0 35.5V7.5C0 3.641 3.141 0.5 7 0.5H14.001H49.999ZM25.583 43.161C27.321 44.62 29.559 45.502 32 45.502C34.441 45.502 36.679 44.62 38.417 43.161C36.748 43.931 34.635 44.502 32 44.502C29.365 44.502 27.252 43.931 25.583 43.161ZM42 35.502V29.504C42 23.99 37.514 19.504 32 19.504C26.486 19.504 22 23.99 22 29.504V35.502C22 36.407 22.132 37.279 22.358 38.114C22.874 38.859 25.715 42.502 32 42.502C38.268 42.502 41.142 38.828 41.643 38.113C41.868 37.279 42 36.406 42 35.502ZM39.003 16.199L37.175 18.693C40.918 20.493 43.588 24.168 43.949 28.5H48.021L39.003 16.199ZM2 12.39V35.5C2 37.914 3.721 39.935 6 40.399V14.42C4.443 14.196 3.051 13.464 2 12.39ZM7 12.5C7.553 12.5 8 12.947 8 13.5V28.5H13.001V2.5H7C4.243 2.5 2 4.743 2 7.5C2 10.257 4.243 12.5 7 12.5ZM35.235 17.959L38.195 13.919C38.245 13.866 38.523 13.577 38.976 13.566C39.461 13.555 39.765 13.869 39.811 13.919L48.999 26.451V2.5H15.002V28.5H20.052C20.564 22.352 25.723 17.504 32.001 17.504C33.123 17.504 34.204 17.67 35.235 17.959ZM28 46.802V48.504H36V46.802C34.747 47.247 33.404 47.502 32 47.502C30.596 47.502 29.253 47.247 28 46.802ZM58 40.398C60.279 39.935 62 37.914 62 35.5V12.39C60.949 13.464 59.557 14.195 58 14.42V40.398ZM56 13.5C56 12.947 56.447 12.5 57 12.5C59.757 12.5 62 10.257 62 7.5C62 4.743 59.757 2.5 57 2.5H50.999V28.5H56V13.5ZM25.0031 9.50403C25.0031 11.158 23.6571 12.504 22.0031 12.504C20.3491 12.504 19.0031 11.158 19.0031 9.50403C19.0031 7.85003 20.3491 6.50403 22.0031 6.50403C23.6571 6.50403 25.0031 7.85003 25.0031 9.50403ZM23.0031 9.50403C23.0031 8.95203 22.5551 8.50403 22.0031 8.50403C21.4511 8.50403 21.0031 8.95203 21.0031 9.50403C21.0031 10.056 21.4511 10.504 22.0031 10.504C22.5551 10.504 23.0031 10.056 23.0031 9.50403Z" fill="url(#paint0_linear)"/>
<defs>
<linearGradient id="paint0_linear" x1="64" y1="25.5" x2="-1.81162e-08" y2="25.5" gradientUnits="userSpaceOnUse">
<stop stop-color="#9281CE"/>
<stop offset="1" stop-color="#68DBFF"/>
</linearGradient>
</defs>
</svg>
