<svg width="61" height="64" viewBox="0 0 61 64" fill="none" xmlns="http://www.w3.org/2000/svg">
<path fill-rule="evenodd" clip-rule="evenodd" d="M59.5983 57.4301L60.133 60.559C60.2795 61.4164 60.0417 62.2894 59.4807 62.954C58.9201 63.6185 58.0993 63.9999 57.2297 63.9999H2.94514C2.07551 63.9999 1.2552 63.6185 0.694169 62.954C0.133624 62.2894 -0.104169 61.4164 0.0423152 60.559L1.32307 53.06C1.84358 50.0131 3.80354 47.414 6.50324 46.0395V20.7192C6.50324 18.9443 7.9466 17.5009 9.72149 17.5009H11.1819V14.3774C11.1819 13.313 12.0482 12.4468 13.1126 12.4468H14.0755C14.3074 11.8003 14.9051 11.3266 15.6175 11.2759C15.9612 8.76268 17.0481 6.41063 18.7278 4.57665C22.8676 0.05646 28.9522 0.00287456 29.2741 4.03186e-05L29.2786 0H30.8987H30.9055C31.2468 0 37.3176 0.0673827 41.448 4.57763C43.1272 6.4121 44.2146 8.76414 44.5578 11.2763C45.2683 11.3291 45.8635 11.8017 46.095 12.4468H47.0578C48.1223 12.4468 48.9885 13.313 48.9885 14.3774V22.4995C48.9885 23.5639 48.1223 24.4296 47.0578 24.4296H46.095C45.8494 25.1142 45.1941 25.6049 44.4265 25.6049H43.989L43.9558 26.2001C43.8269 28.4995 43.0759 30.7177 41.7839 32.6142C41.0227 33.7328 39.2195 35.5546 37.4895 37.1064V40.3539C37.4895 41.4682 38.303 42.4648 39.0305 42.6108L40.1609 42.851L51.8342 45.3319C51.8537 45.3358 51.8728 45.3402 51.8913 45.3456C55.4904 46.3485 58.2229 49.3769 58.8518 53.06C58.9392 53.5702 58.5959 54.0551 58.0857 54.142C57.5754 54.2289 57.091 53.8861 57.0036 53.3759C56.4978 50.4135 54.3059 47.9765 51.4153 47.1596L40.1648 44.769C37.1736 46.7758 33.6965 47.8349 30.0877 47.8349C26.4788 47.8349 23.0013 46.7758 20.0105 44.769L8.75958 47.1596C8.49103 47.2353 8.22785 47.3256 7.97199 47.4286C7.87238 47.4975 7.75861 47.5473 7.63605 47.5731C5.31135 48.64 3.6092 50.8109 3.17122 53.3759L1.89046 60.8744C1.83626 61.1908 1.92073 61.4999 2.12727 61.745C2.33381 61.9901 2.62434 62.1249 2.94514 62.1249H9.51691L10.6902 54.9125C10.7737 54.4013 11.2562 54.0551 11.7664 54.1381C12.2772 54.2211 12.6243 54.7025 12.5408 55.2138L11.4163 62.1249H48.759L47.634 55.2138C47.551 54.7025 47.8977 54.2211 48.4089 54.1381C48.9211 54.0551 49.4016 54.4017 49.4846 54.9125L50.6584 62.1249H57.2297C57.5505 62.1249 57.841 61.9901 58.0476 61.745C58.2546 61.4999 58.3386 61.1908 58.2849 60.8744L57.7502 57.746C57.6633 57.2357 58.0061 56.7514 58.5163 56.6639C59.0266 56.5765 59.5114 56.9198 59.5983 57.4301ZM47.0574 14.3217H46.1985V22.5546H47.0574C47.0881 22.5546 47.113 22.5297 47.113 22.499V14.3774C47.113 14.3467 47.0881 14.3217 47.0574 14.3217ZM30.0877 45.9599C32.7581 45.9599 35.3479 45.3129 37.6785 44.0751C36.3845 43.3207 35.614 41.7157 35.614 40.3539V38.7011C34.846 39.3134 34.2048 39.7616 33.8362 39.9189C32.6453 40.4272 31.3665 40.6811 30.0877 40.6811C28.8089 40.6811 27.5301 40.4267 26.3386 39.9189C25.9705 39.7616 25.3294 39.3139 24.5608 38.7011V40.3539C24.5608 41.7148 23.7923 43.3178 22.4944 44.0741C24.8255 45.3124 27.4163 45.9599 30.0877 45.9599ZM29.2761 1.875C29.2195 1.875 23.7005 1.92334 20.1106 5.84325C18.7459 7.33348 17.8426 9.23191 17.5135 11.2715H42.6614C42.3328 9.23289 41.4294 7.33446 40.0647 5.84374C36.4661 1.91357 30.9837 1.875 30.9021 1.875H30.9016H29.2761ZM16.4617 13.1465H15.847V23.7299H20.2185C20.7366 23.7299 21.156 24.1494 21.156 24.6674C21.156 25.185 20.7366 25.6049 20.2185 25.6049H18.0638L18.0911 26.0937C18.201 28.0537 18.8406 29.9433 19.9407 31.5585C20.5105 32.3954 21.9339 33.8886 23.656 35.455C23.8548 35.6357 24.0467 35.808 24.2317 35.9716C24.2351 35.9744 24.2385 35.9773 24.2419 35.9802C24.2467 35.9844 24.2515 35.9888 24.2561 35.9931C25.7605 37.3217 26.7918 38.0737 27.074 38.1938C28.989 39.0107 31.1853 39.0107 33.1008 38.1938C33.9602 37.8276 38.8806 33.5463 40.2341 31.5585C41.3342 29.9433 41.9734 28.0541 42.0832 26.0947L42.1111 25.6049H33.8923C33.0505 25.6049 32.2249 25.3749 31.5042 24.9394C30.6292 24.4111 29.5418 24.4111 28.6663 24.9394C27.9456 25.3749 27.1194 25.6049 26.2776 25.6049H24.5847C24.0672 25.6049 23.6472 25.185 23.6472 24.6674C23.6472 24.1499 24.0672 23.7299 24.5847 23.7299H26.2776C26.7781 23.7299 27.2688 23.5932 27.697 23.3344C29.1702 22.4448 31.0003 22.4448 32.4734 23.3344C32.9016 23.5932 33.3923 23.7299 33.8928 23.7299H44.3235V13.1465H16.4773H16.4617ZM13.1131 14.3217C13.0823 14.3217 13.0574 14.3467 13.0574 14.3774V22.499C13.0574 22.5297 13.0823 22.5546 13.1131 22.5546H13.972V14.3217H13.1131ZM9.72149 19.3759C8.98077 19.3759 8.37824 19.9785 8.37824 20.7192V45.3236L20.0144 42.851L21.1346 42.6132C21.8723 42.4648 22.6858 41.4682 22.6858 40.3539V37.1064C20.9558 35.5546 19.1526 33.7328 18.3914 32.6142C17.0994 30.7177 16.3484 28.499 16.2195 26.1992L16.1858 25.6049H15.7444C14.9764 25.6049 14.3211 25.1142 14.0755 24.4296H13.1131C12.0486 24.4296 11.1824 23.5634 11.1824 22.499V19.3759H9.72149ZM32.7827 15.7851C32.7744 15.7529 32.7666 15.7206 32.7666 15.7045C32.7666 15.4472 33.145 15.27 33.4263 15.27C33.6035 15.27 33.7402 15.3261 33.7803 15.4794L35.0117 19.8408L36.2349 15.4794C36.2749 15.3261 36.4121 15.27 36.5889 15.27C36.8706 15.27 37.249 15.455 37.249 15.7045C37.249 15.7238 37.2439 15.7427 37.2376 15.7657L37.2324 15.7851L35.6875 20.8466C35.6152 21.0883 35.3174 21.2006 35.0117 21.2006C34.7061 21.2006 34.416 21.0883 34.3359 20.8466L32.7827 15.7851ZM37.8042 15.5922C37.8042 15.4233 37.9409 15.2704 38.1421 15.2704H39.7354C40.7896 15.2704 41.6426 15.6728 41.6426 16.9521C41.6426 17.8774 41.1919 18.3764 40.5884 18.5615L41.6426 20.517C41.6748 20.5571 41.6826 20.6137 41.6826 20.6459C41.6826 20.9116 41.3369 21.1928 41.0308 21.1928C40.8862 21.1928 40.7495 21.1044 40.6689 20.9433L39.5264 18.7221H38.8501V20.8227C38.8501 21.04 38.5928 21.1528 38.3271 21.1528C38.0693 21.1528 37.8037 21.04 37.8037 20.8227V15.5922H37.8042ZM38.8501 16.1874V17.9013H39.7354C40.2583 17.9013 40.5962 17.684 40.5962 17.0483C40.5962 16.4125 40.2583 16.1874 39.7354 16.1874H38.8501Z" fill="url(#paint0_linear)"/>
<defs>
<linearGradient id="paint0_linear" x1="60.1753" y1="28.0701" x2="-1.70335e-08" y2="28.0701" gradientUnits="userSpaceOnUse">
<stop stop-color="#9281CE"/>
<stop offset="1" stop-color="#68DBFF"/>
</linearGradient>
</defs>
</svg>
