<svg id="Слой_1" data-name="Слой 1" xmlns="http://www.w3.org/2000/svg" viewBox="0 0 73 74">
    <defs>
        <style>
            .cls-1 {
                fill: #fff;
            }

            .cls-2,
            .cls-3 {
                fill: none;
                stroke-width: 3px;
            }

            .cls-2 {
                stroke: #15379a;
            }

            .cls-3 {
                stroke: #1e4fc6;
            }
        </style>
    </defs>
    <title>close as1</title>
    <path class="cls-1"
        d="M36.5,17.70623h0a1.07187,1.07187,0,0,1,1.07187,1.07187V55.2219A1.07188,1.07188,0,0,1,36.5,56.29377h0a1.07188,1.07188,0,0,1-1.07188-1.07188V18.7781A1.07187,1.07187,0,0,1,36.5,17.70623Z"
        transform="translate(-15.47086 36.47151) rotate(-44.80714)" />
    <path class="cls-1"
        d="M18.2781,35.92812H54.7219A1.07187,1.07187,0,0,1,55.79377,37v0a1.07188,1.07188,0,0,1-1.07188,1.07188H18.2781A1.07188,1.07188,0,0,1,17.20623,37v0A1.07188,1.07188,0,0,1,18.2781,35.92812Z"
        transform="translate(-15.47086 36.47151) rotate(-44.80714)" />
    <circle class="cls-2" cx="33" cy="41" r="31.5" />
    <circle class="cls-2" cx="40" cy="33" r="31.5" />
    <circle class="cls-3" cx="36" cy="36" r="31.5" />
</svg>